<svg xmlns="http://www.w3.org/2000/svg" viewBox="0 0 1329.33 498.79">
  <style>
    .key-bg { fill: #f5f5f5; stroke: #d4d4d4; stroke-width: 1; }
    .key-index { fill: #171717; font-family: ui-monospace, SFMono-Regular, "SF Mono", Menlo, Consolas, "Liberation Mono", monospace; font-weight: 700; text-anchor: middle; dominant-baseline: central; }
    .key-part { font-family: system-ui, -apple-system, BlinkMacSystemFont, "Segoe UI", Roboto, sans-serif; text-anchor: middle; dominant-baseline: central; }
    @media (prefers-color-scheme: dark) {
      .key-bg { fill: #2a2a2a; stroke: #404040; }
      .key-index { fill: #e5e5e5; }
    }
    .key-bg.part-0 { stroke: #f59e0b; }
    .key-part.part-0 { fill: #f59e0b; }
    .key-bg.part-1 { stroke: #14b8a6; }
    .key-part.part-1 { fill: #14b8a6; }
  </style>
  <g>
    <path class="key-bg part-0" d="M 26.21,48.25 L 84.21,48.25 Q 88.21,48.25 88.21,52.25 L 88.21,110.25 Q 88.21,114.25 84.21,114.25 L 26.21,114.25 Q 22.21,114.25 22.21,110.25 L 22.21,52.25 Q 22.21,48.25 26.21,48.25 Z" />
    <path class="key-bg part-0" d="M 96.21,48.25 L 154.21,48.25 Q 158.21,48.25 158.21,52.25 L 158.21,110.25 Q 158.21,114.25 154.21,114.25 L 96.21,114.25 Q 92.21,114.25 92.21,110.25 L 92.21,52.25 Q 92.21,48.25 96.21,48.25 Z" />
    <path class="key-bg part-0" d="M 166.21,30.75 L 224.21,30.75 Q 228.21,30.75 228.21,34.75 L 228.21,92.75 Q 228.21,96.75 224.21,96.75 L 166.21,96.75 Q 162.21,96.75 162.21,92.75 L 162.21,34.75 Q 162.21,30.75 166.21,30.75 Z" />
    <path class="key-bg part-0" d="M 236.21,22.00 L 294.21,22.00 Q 298.21,22.00 298.21,26.00 L 298.21,84.00 Q 298.21,88.00 294.21,88.00 L 236.21,88.00 Q 232.21,88.00 232.21,84.00 L 232.21,26.00 Q 232.21,22.00 236.21,22.00 Z" />
    <path class="key-bg part-0" d="M 306.21,30.75 L 364.21,30.75 Q 368.21,30.75 368.21,34.75 L 368.21,92.75 Q 368.21,96.75 364.21,96.75 L 306.21,96.75 Q 302.21,96.75 302.21,92.75 L 302.21,34.75 Q 302.21,30.75 306.21,30.75 Z" />
    <path class="key-bg part-0" d="M 376.21,39.50 L 434.21,39.50 Q 438.21,39.50 438.21,43.50 L 438.21,101.50 Q 438.21,105.50 434.21,105.50 L 376.21,105.50 Q 372.21,105.50 372.21,101.50 L 372.21,43.50 Q 372.21,39.50 376.21,39.50 Z" />
    <path class="key-bg part-1" d="M 895.12,39.50 L 953.12,39.50 Q 957.12,39.50 957.12,43.50 L 957.12,101.50 Q 957.12,105.50 953.12,105.50 L 895.12,105.50 Q 891.12,105.50 891.12,101.50 L 891.12,43.50 Q 891.12,39.50 895.12,39.50 Z" />
    <path class="key-bg part-1" d="M 965.12,30.75 L 1023.12,30.75 Q 1027.12,30.75 1027.12,34.75 L 1027.12,92.75 Q 1027.12,96.75 1023.12,96.75 L 965.12,96.75 Q 961.12,96.75 961.12,92.75 L 961.12,34.75 Q 961.12,30.75 965.12,30.75 Z" />
    <path class="key-bg part-1" d="M 1035.12,22.00 L 1093.12,22.00 Q 1097.12,22.00 1097.12,26.00 L 1097.12,84.00 Q 1097.12,88.00 1093.12,88.00 L 1035.12,88.00 Q 1031.12,88.00 1031.12,84.00 L 1031.12,26.00 Q 1031.12,22.00 1035.12,22.00 Z" />
    <path class="key-bg part-1" d="M 1105.12,30.75 L 1163.12,30.75 Q 1167.12,30.75 1167.12,34.75 L 1167.12,92.75 Q 1167.12,96.75 1163.12,96.75 L 1105.12,96.75 Q 1101.12,96.75 1101.12,92.75 L 1101.12,34.75 Q 1101.12,30.75 1105.12,30.75 Z" />
    <path class="key-bg part-1" d="M 1175.12,48.25 L 1233.12,48.25 Q 1237.12,48.25 1237.12,52.25 L 1237.12,110.25 Q 1237.12,114.25 1233.12,114.25 L 1175.12,114.25 Q 1171.12,114.25 1171.12,110.25 L 1171.12,52.25 Q 1171.12,48.25 1175.12,48.25 Z" />
    <path class="key-bg part-1" d="M 1245.12,48.25 L 1303.12,48.25 Q 1307.12,48.25 1307.12,52.25 L 1307.12,110.25 Q 1307.12,114.25 1303.12,114.25 L 1245.12,114.25 Q 1241.12,114.25 1241.12,110.25 L 1241.12,52.25 Q 1241.12,48.25 1245.12,48.25 Z" />
    <path class="key-bg part-0" d="M 26.21,118.25 L 84.21,118.25 Q 88.21,118.25 88.21,122.25 L 88.21,180.25 Q 88.21,184.25 84.21,184.25 L 26.21,184.25 Q 22.21,184.25 22.21,180.25 L 22.21,122.25 Q 22.21,118.25 26.21,118.25 Z" />
    <path class="key-bg part-0" d="M 96.21,118.25 L 154.21,118.25 Q 158.21,118.25 158.21,122.25 L 158.21,180.25 Q 158.21,184.25 154.21,184.25 L 96.21,184.25 Q 92.21,184.25 92.21,180.25 L 92.21,122.25 Q 92.21,118.25 96.21,118.25 Z" />
    <path class="key-bg part-0" d="M 166.21,100.75 L 224.21,100.75 Q 228.21,100.75 228.21,104.75 L 228.21,162.75 Q 228.21,166.75 224.21,166.75 L 166.21,166.75 Q 162.21,166.75 162.21,162.75 L 162.21,104.75 Q 162.21,100.75 166.21,100.75 Z" />
    <path class="key-bg part-0" d="M 236.21,92.00 L 294.21,92.00 Q 298.21,92.00 298.21,96.00 L 298.21,154.00 Q 298.21,158.00 294.21,158.00 L 236.21,158.00 Q 232.21,158.00 232.21,154.00 L 232.21,96.00 Q 232.21,92.00 236.21,92.00 Z" />
    <path class="key-bg part-0" d="M 306.21,100.75 L 364.21,100.75 Q 368.21,100.75 368.21,104.75 L 368.21,162.75 Q 368.21,166.75 364.21,166.75 L 306.21,166.75 Q 302.21,166.75 302.21,162.75 L 302.21,104.75 Q 302.21,100.75 306.21,100.75 Z" />
    <path class="key-bg part-0" d="M 376.21,109.50 L 434.21,109.50 Q 438.21,109.50 438.21,113.50 L 438.21,171.50 Q 438.21,175.50 434.21,175.50 L 376.21,175.50 Q 372.21,175.50 372.21,171.50 L 372.21,113.50 Q 372.21,109.50 376.21,109.50 Z" />
    <path class="key-bg part-1" d="M 895.12,109.50 L 953.12,109.50 Q 957.12,109.50 957.12,113.50 L 957.12,171.50 Q 957.12,175.50 953.12,175.50 L 895.12,175.50 Q 891.12,175.50 891.12,171.50 L 891.12,113.50 Q 891.12,109.50 895.12,109.50 Z" />
    <path class="key-bg part-1" d="M 965.12,100.75 L 1023.12,100.75 Q 1027.12,100.75 1027.12,104.75 L 1027.12,162.75 Q 1027.12,166.75 1023.12,166.75 L 965.12,166.75 Q 961.12,166.75 961.12,162.75 L 961.12,104.75 Q 961.12,100.75 965.12,100.75 Z" />
    <path class="key-bg part-1" d="M 1035.12,92.00 L 1093.12,92.00 Q 1097.12,92.00 1097.12,96.00 L 1097.12,154.00 Q 1097.12,158.00 1093.12,158.00 L 1035.12,158.00 Q 1031.12,158.00 1031.12,154.00 L 1031.12,96.00 Q 1031.12,92.00 1035.12,92.00 Z" />
    <path class="key-bg part-1" d="M 1105.12,100.75 L 1163.12,100.75 Q 1167.12,100.75 1167.12,104.75 L 1167.12,162.75 Q 1167.12,166.75 1163.12,166.75 L 1105.12,166.75 Q 1101.12,166.75 1101.12,162.75 L 1101.12,104.75 Q 1101.12,100.75 1105.12,100.75 Z" />
    <path class="key-bg part-1" d="M 1175.12,118.25 L 1233.12,118.25 Q 1237.12,118.25 1237.12,122.25 L 1237.12,180.25 Q 1237.12,184.25 1233.12,184.25 L 1175.12,184.25 Q 1171.12,184.25 1171.12,180.25 L 1171.12,122.25 Q 1171.12,118.25 1175.12,118.25 Z" />
    <path class="key-bg part-1" d="M 1245.12,118.25 L 1303.12,118.25 Q 1307.12,118.25 1307.12,122.25 L 1307.12,180.25 Q 1307.12,184.25 1303.12,184.25 L 1245.12,184.25 Q 1241.12,184.25 1241.12,180.25 L 1241.12,122.25 Q 1241.12,118.25 1245.12,118.25 Z" />
    <path class="key-bg part-0" d="M 26.21,188.25 L 84.21,188.25 Q 88.21,188.25 88.21,192.25 L 88.21,250.25 Q 88.21,254.25 84.21,254.25 L 26.21,254.25 Q 22.21,254.25 22.21,250.25 L 22.21,192.25 Q 22.21,188.25 26.21,188.25 Z" />
    <path class="key-bg part-0" d="M 96.21,188.25 L 154.21,188.25 Q 158.21,188.25 158.21,192.25 L 158.21,250.25 Q 158.21,254.25 154.21,254.25 L 96.21,254.25 Q 92.21,254.25 92.21,250.25 L 92.21,192.25 Q 92.21,188.25 96.21,188.25 Z" />
    <path class="key-bg part-0" d="M 166.21,170.75 L 224.21,170.75 Q 228.21,170.75 228.21,174.75 L 228.21,232.75 Q 228.21,236.75 224.21,236.75 L 166.21,236.75 Q 162.21,236.75 162.21,232.75 L 162.21,174.75 Q 162.21,170.75 166.21,170.75 Z" />
    <path class="key-bg part-0" d="M 236.21,162.00 L 294.21,162.00 Q 298.21,162.00 298.21,166.00 L 298.21,224.00 Q 298.21,228.00 294.21,228.00 L 236.21,228.00 Q 232.21,228.00 232.21,224.00 L 232.21,166.00 Q 232.21,162.00 236.21,162.00 Z" />
    <path class="key-bg part-0" d="M 306.21,170.75 L 364.21,170.75 Q 368.21,170.75 368.21,174.75 L 368.21,232.75 Q 368.21,236.75 364.21,236.75 L 306.21,236.75 Q 302.21,236.75 302.21,232.75 L 302.21,174.75 Q 302.21,170.75 306.21,170.75 Z" />
    <path class="key-bg part-0" d="M 376.21,179.50 L 434.21,179.50 Q 438.21,179.50 438.21,183.50 L 438.21,241.50 Q 438.21,245.50 434.21,245.50 L 376.21,245.50 Q 372.21,245.50 372.21,241.50 L 372.21,183.50 Q 372.21,179.50 376.21,179.50 Z" />
    <path class="key-bg part-1" d="M 895.12,179.50 L 953.12,179.50 Q 957.12,179.50 957.12,183.50 L 957.12,241.50 Q 957.12,245.50 953.12,245.50 L 895.12,245.50 Q 891.12,245.50 891.12,241.50 L 891.12,183.50 Q 891.12,179.50 895.12,179.50 Z" />
    <path class="key-bg part-1" d="M 965.12,170.75 L 1023.12,170.75 Q 1027.12,170.75 1027.12,174.75 L 1027.12,232.75 Q 1027.12,236.75 1023.12,236.75 L 965.12,236.75 Q 961.12,236.75 961.12,232.75 L 961.12,174.75 Q 961.12,170.75 965.12,170.75 Z" />
    <path class="key-bg part-1" d="M 1035.12,162.00 L 1093.12,162.00 Q 1097.12,162.00 1097.12,166.00 L 1097.12,224.00 Q 1097.12,228.00 1093.12,228.00 L 1035.12,228.00 Q 1031.12,228.00 1031.12,224.00 L 1031.12,166.00 Q 1031.12,162.00 1035.12,162.00 Z" />
    <path class="key-bg part-1" d="M 1105.12,170.75 L 1163.12,170.75 Q 1167.12,170.75 1167.12,174.75 L 1167.12,232.75 Q 1167.12,236.75 1163.12,236.75 L 1105.12,236.75 Q 1101.12,236.75 1101.12,232.75 L 1101.12,174.75 Q 1101.12,170.75 1105.12,170.75 Z" />
    <path class="key-bg part-1" d="M 1175.12,188.25 L 1233.12,188.25 Q 1237.12,188.25 1237.12,192.25 L 1237.12,250.25 Q 1237.12,254.25 1233.12,254.25 L 1175.12,254.25 Q 1171.12,254.25 1171.12,250.25 L 1171.12,192.25 Q 1171.12,188.25 1175.12,188.25 Z" />
    <path class="key-bg part-1" d="M 1245.12,188.25 L 1303.12,188.25 Q 1307.12,188.25 1307.12,192.25 L 1307.12,250.25 Q 1307.12,254.25 1303.12,254.25 L 1245.12,254.25 Q 1241.12,254.25 1241.12,250.25 L 1241.12,192.25 Q 1241.12,188.25 1245.12,188.25 Z" />
    <path class="key-bg part-0" d="M 26.21,258.25 L 84.21,258.25 Q 88.21,258.25 88.21,262.25 L 88.21,320.25 Q 88.21,324.25 84.21,324.25 L 26.21,324.25 Q 22.21,324.25 22.21,320.25 L 22.21,262.25 Q 22.21,258.25 26.21,258.25 Z" />
    <path class="key-bg part-0" d="M 96.21,258.25 L 154.21,258.25 Q 158.21,258.25 158.21,262.25 L 158.21,320.25 Q 158.21,324.25 154.21,324.25 L 96.21,324.25 Q 92.21,324.25 92.21,320.25 L 92.21,262.25 Q 92.21,258.25 96.21,258.25 Z" />
    <path class="key-bg part-0" d="M 166.21,240.75 L 224.21,240.75 Q 228.21,240.75 228.21,244.75 L 228.21,302.75 Q 228.21,306.75 224.21,306.75 L 166.21,306.75 Q 162.21,306.75 162.21,302.75 L 162.21,244.75 Q 162.21,240.75 166.21,240.75 Z" />
    <path class="key-bg part-0" d="M 236.21,232.00 L 294.21,232.00 Q 298.21,232.00 298.21,236.00 L 298.21,294.00 Q 298.21,298.00 294.21,298.00 L 236.21,298.00 Q 232.21,298.00 232.21,294.00 L 232.21,236.00 Q 232.21,232.00 236.21,232.00 Z" />
    <path class="key-bg part-0" d="M 306.21,240.75 L 364.21,240.75 Q 368.21,240.75 368.21,244.75 L 368.21,302.75 Q 368.21,306.75 364.21,306.75 L 306.21,306.75 Q 302.21,306.75 302.21,302.75 L 302.21,244.75 Q 302.21,240.75 306.21,240.75 Z" />
    <path class="key-bg part-0" d="M 376.21,249.50 L 434.21,249.50 Q 438.21,249.50 438.21,253.50 L 438.21,311.50 Q 438.21,315.50 434.21,315.50 L 376.21,315.50 Q 372.21,315.50 372.21,311.50 L 372.21,253.50 Q 372.21,249.50 376.21,249.50 Z" />
    <path class="key-bg part-0" d="M 474.72,266.30 L 524.94,295.30 Q 528.41,297.30 526.41,300.77 L 497.41,350.99 Q 495.41,354.46 491.94,352.46 L 441.72,323.46 Q 438.25,321.46 440.25,317.99 L 469.25,267.77 Q 471.25,264.30 474.72,266.30 Z" />
    <path class="key-bg part-0" d="M 560.40,319.99 L 601.42,361.00 Q 604.25,363.83 601.42,366.66 L 560.40,407.67 Q 557.58,410.50 554.75,407.67 L 513.74,366.66 Q 510.91,363.83 513.74,361.00 L 554.75,319.99 Q 557.58,317.16 560.40,319.99 Z" />
    <path class="key-bg part-1" d="M 727.91,361.00 L 768.93,319.99 Q 771.75,317.16 774.58,319.99 L 815.59,361.00 Q 818.42,363.83 815.59,366.66 L 774.58,407.67 Q 771.75,410.50 768.93,407.67 L 727.91,366.66 Q 725.08,363.83 727.91,361.00 Z" />
    <path class="key-bg part-1" d="M 804.39,295.30 L 854.61,266.30 Q 858.08,264.30 860.08,267.77 L 889.08,317.99 Q 891.08,321.46 887.61,323.46 L 837.39,352.46 Q 833.92,354.46 831.92,350.99 L 802.92,300.77 Q 800.92,297.30 804.39,295.30 Z" />
    <path class="key-bg part-1" d="M 895.12,249.50 L 953.12,249.50 Q 957.12,249.50 957.12,253.50 L 957.12,311.50 Q 957.12,315.50 953.12,315.50 L 895.12,315.50 Q 891.12,315.50 891.12,311.50 L 891.12,253.50 Q 891.12,249.50 895.12,249.50 Z" />
    <path class="key-bg part-1" d="M 965.12,240.75 L 1023.12,240.75 Q 1027.12,240.75 1027.12,244.75 L 1027.12,302.75 Q 1027.12,306.75 1023.12,306.75 L 965.12,306.75 Q 961.12,306.75 961.12,302.75 L 961.12,244.75 Q 961.12,240.75 965.12,240.75 Z" />
    <path class="key-bg part-1" d="M 1035.12,232.00 L 1093.12,232.00 Q 1097.12,232.00 1097.12,236.00 L 1097.12,294.00 Q 1097.12,298.00 1093.12,298.00 L 1035.12,298.00 Q 1031.12,298.00 1031.12,294.00 L 1031.12,236.00 Q 1031.12,232.00 1035.12,232.00 Z" />
    <path class="key-bg part-1" d="M 1105.12,240.75 L 1163.12,240.75 Q 1167.12,240.75 1167.12,244.75 L 1167.12,302.75 Q 1167.12,306.75 1163.12,306.75 L 1105.12,306.75 Q 1101.12,306.75 1101.12,302.75 L 1101.12,244.75 Q 1101.12,240.75 1105.12,240.75 Z" />
    <path class="key-bg part-1" d="M 1175.12,258.25 L 1233.12,258.25 Q 1237.12,258.25 1237.12,262.25 L 1237.12,320.25 Q 1237.12,324.25 1233.12,324.25 L 1175.12,324.25 Q 1171.12,324.25 1171.12,320.25 L 1171.12,262.25 Q 1171.12,258.25 1175.12,258.25 Z" />
    <path class="key-bg part-1" d="M 1245.12,258.25 L 1303.12,258.25 Q 1307.12,258.25 1307.12,262.25 L 1307.12,320.25 Q 1307.12,324.25 1303.12,324.25 L 1245.12,324.25 Q 1241.12,324.25 1241.12,320.25 L 1241.12,262.25 Q 1241.12,258.25 1245.12,258.25 Z" />
    <path class="key-bg part-0" d="M 26.00,327.97 L 84.00,327.97 Q 88.00,327.97 88.00,331.97 L 88.00,389.97 Q 88.00,393.97 84.00,393.97 L 26.00,393.97 Q 22.00,393.97 22.00,389.97 L 22.00,331.97 Q 22.00,327.97 26.00,327.97 Z" />
    <path class="key-bg part-0" d="M 191.41,310.82 L 249.41,310.82 Q 253.41,310.82 253.41,314.82 L 253.41,372.82 Q 253.41,376.82 249.41,376.82 L 191.41,376.82 Q 187.41,376.82 187.41,372.82 L 187.41,314.82 Q 187.41,310.82 191.41,310.82 Z" />
    <path class="key-bg part-0" d="M 261.41,310.82 L 319.41,310.82 Q 323.41,310.82 323.41,314.82 L 323.41,372.82 Q 323.41,376.82 319.41,376.82 L 261.41,376.82 Q 257.41,376.82 257.41,372.82 L 257.41,314.82 Q 257.41,310.82 261.41,310.82 Z" />
    <path class="key-bg part-0" d="M 348.29,314.59 L 404.31,329.60 Q 408.18,330.64 407.14,334.50 L 392.13,390.52 Q 391.09,394.39 387.23,393.35 L 331.21,378.34 Q 327.34,377.30 328.38,373.44 L 343.39,317.42 Q 344.43,313.55 348.29,314.59 Z" />
    <path class="key-bg part-0" d="M 435.59,334.34 L 485.81,363.34 Q 489.28,365.34 487.28,368.81 L 458.28,419.03 Q 456.28,422.50 452.81,420.50 L 402.59,391.50 Q 399.12,389.50 401.12,386.03 L 430.12,335.81 Q 432.12,332.34 435.59,334.34 Z" />
    <path class="key-bg part-0" d="M 511.99,385.45 L 553.00,426.46 Q 555.83,429.29 553.00,432.12 L 511.99,473.13 Q 509.16,475.96 506.33,473.13 L 465.32,432.12 Q 462.49,429.29 465.32,426.46 L 506.33,385.45 Q 509.16,382.62 511.99,385.45 Z" />
    <path class="key-bg part-1" d="M 776.33,426.46 L 817.34,385.45 Q 820.17,382.62 823.00,385.45 L 864.01,426.46 Q 866.84,429.29 864.01,432.12 L 823.00,473.13 Q 820.17,475.96 817.34,473.13 L 776.33,432.12 Q 773.50,429.29 776.33,426.46 Z" />
    <path class="key-bg part-1" d="M 843.52,363.34 L 893.74,334.34 Q 897.21,332.34 899.21,335.81 L 928.21,386.03 Q 930.21,389.50 926.74,391.50 L 876.52,420.50 Q 873.05,422.50 871.05,419.03 L 842.05,368.81 Q 840.05,365.34 843.52,363.34 Z" />
    <path class="key-bg part-1" d="M 925.02,329.60 L 981.04,314.59 Q 984.90,313.55 985.94,317.42 L 1000.95,373.44 Q 1001.99,377.30 998.12,378.34 L 942.10,393.35 Q 938.24,394.39 937.20,390.52 L 922.19,334.50 Q 921.15,330.64 925.02,329.60 Z" />
    <path class="key-bg part-1" d="M 1009.92,310.82 L 1067.92,310.82 Q 1071.92,310.82 1071.92,314.82 L 1071.92,372.82 Q 1071.92,376.82 1067.92,376.82 L 1009.92,376.82 Q 1005.92,376.82 1005.92,372.82 L 1005.92,314.82 Q 1005.92,310.82 1009.92,310.82 Z" />
    <path class="key-bg part-1" d="M 1079.92,310.82 L 1137.92,310.82 Q 1141.92,310.82 1141.92,314.82 L 1141.92,372.82 Q 1141.92,376.82 1137.92,376.82 L 1079.92,376.82 Q 1075.92,376.82 1075.92,372.82 L 1075.92,314.82 Q 1075.92,310.82 1079.92,310.82 Z" />
    <path class="key-bg part-1" d="M 1245.33,327.97 L 1303.33,327.97 Q 1307.33,327.97 1307.33,331.97 L 1307.33,389.97 Q 1307.33,393.97 1303.33,393.97 L 1245.33,393.97 Q 1241.33,393.97 1241.33,389.97 L 1241.33,331.97 Q 1241.33,327.97 1245.33,327.97 Z" />
  </g>
  <g>
    <text class="key-index" x="55.21" y="69.61" font-size="26">0</text>
    <text class="key-part part-0" x="55.21" y="96.89" font-size="18">left</text>
    <text class="key-index" x="125.21" y="69.61" font-size="26">1</text>
    <text class="key-part part-0" x="125.21" y="96.89" font-size="18">left</text>
    <text class="key-index" x="195.21" y="52.11" font-size="26">2</text>
    <text class="key-part part-0" x="195.21" y="79.39" font-size="18">left</text>
    <text class="key-index" x="265.21" y="43.36" font-size="26">3</text>
    <text class="key-part part-0" x="265.21" y="70.64" font-size="18">left</text>
    <text class="key-index" x="335.21" y="52.11" font-size="26">4</text>
    <text class="key-part part-0" x="335.21" y="79.39" font-size="18">left</text>
    <text class="key-index" x="405.21" y="60.86" font-size="26">5</text>
    <text class="key-part part-0" x="405.21" y="88.14" font-size="18">left</text>
    <text class="key-index" x="924.12" y="60.86" font-size="26">6</text>
    <text class="key-part part-1" x="924.12" y="88.14" font-size="18">right</text>
    <text class="key-index" x="994.12" y="52.11" font-size="26">7</text>
    <text class="key-part part-1" x="994.12" y="79.39" font-size="18">right</text>
    <text class="key-index" x="1064.12" y="43.36" font-size="26">8</text>
    <text class="key-part part-1" x="1064.12" y="70.64" font-size="18">right</text>
    <text class="key-index" x="1134.12" y="52.11" font-size="26">9</text>
    <text class="key-part part-1" x="1134.12" y="79.39" font-size="18">right</text>
    <text class="key-index" x="1204.12" y="69.61" font-size="26">10</text>
    <text class="key-part part-1" x="1204.12" y="96.89" font-size="18">right</text>
    <text class="key-index" x="1274.12" y="69.61" font-size="26">11</text>
    <text class="key-part part-1" x="1274.12" y="96.89" font-size="18">right</text>
    <text class="key-index" x="55.21" y="139.61" font-size="26">12</text>
    <text class="key-part part-0" x="55.21" y="166.89" font-size="18">left</text>
    <text class="key-index" x="125.21" y="139.61" font-size="26">13</text>
    <text class="key-part part-0" x="125.21" y="166.89" font-size="18">left</text>
    <text class="key-index" x="195.21" y="122.11" font-size="26">14</text>
    <text class="key-part part-0" x="195.21" y="149.39" font-size="18">left</text>
    <text class="key-index" x="265.21" y="113.36" font-size="26">15</text>
    <text class="key-part part-0" x="265.21" y="140.64" font-size="18">left</text>
    <text class="key-index" x="335.21" y="122.11" font-size="26">16</text>
    <text class="key-part part-0" x="335.21" y="149.39" font-size="18">left</text>
    <text class="key-index" x="405.21" y="130.86" font-size="26">17</text>
    <text class="key-part part-0" x="405.21" y="158.14" font-size="18">left</text>
    <text class="key-index" x="924.12" y="130.86" font-size="26">18</text>
    <text class="key-part part-1" x="924.12" y="158.14" font-size="18">right</text>
    <text class="key-index" x="994.12" y="122.11" font-size="26">19</text>
    <text class="key-part part-1" x="994.12" y="149.39" font-size="18">right</text>
    <text class="key-index" x="1064.12" y="113.36" font-size="26">20</text>
    <text class="key-part part-1" x="1064.12" y="140.64" font-size="18">right</text>
    <text class="key-index" x="1134.12" y="122.11" font-size="26">21</text>
    <text class="key-part part-1" x="1134.12" y="149.39" font-size="18">right</text>
    <text class="key-index" x="1204.12" y="139.61" font-size="26">22</text>
    <text class="key-part part-1" x="1204.12" y="166.89" font-size="18">right</text>
    <text class="key-index" x="1274.12" y="139.61" font-size="26">23</text>
    <text class="key-part part-1" x="1274.12" y="166.89" font-size="18">right</text>
    <text class="key-index" x="55.21" y="209.61" font-size="26">24</text>
    <text class="key-part part-0" x="55.21" y="236.89" font-size="18">left</text>
    <text class="key-index" x="125.21" y="209.61" font-size="26">25</text>
    <text class="key-part part-0" x="125.21" y="236.89" font-size="18">left</text>
    <text class="key-index" x="195.21" y="192.11" font-size="26">26</text>
    <text class="key-part part-0" x="195.21" y="219.39" font-size="18">left</text>
    <text class="key-index" x="265.21" y="183.36" font-size="26">27</text>
    <text class="key-part part-0" x="265.21" y="210.64" font-size="18">left</text>
    <text class="key-index" x="335.21" y="192.11" font-size="26">28</text>
    <text class="key-part part-0" x="335.21" y="219.39" font-size="18">left</text>
    <text class="key-index" x="405.21" y="200.86" font-size="26">29</text>
    <text class="key-part part-0" x="405.21" y="228.14" font-size="18">left</text>
    <text class="key-index" x="924.12" y="200.86" font-size="26">30</text>
    <text class="key-part part-1" x="924.12" y="228.14" font-size="18">right</text>
    <text class="key-index" x="994.12" y="192.11" font-size="26">31</text>
    <text class="key-part part-1" x="994.12" y="219.39" font-size="18">right</text>
    <text class="key-index" x="1064.12" y="183.36" font-size="26">32</text>
    <text class="key-part part-1" x="1064.12" y="210.64" font-size="18">right</text>
    <text class="key-index" x="1134.12" y="192.11" font-size="26">33</text>
    <text class="key-part part-1" x="1134.12" y="219.39" font-size="18">right</text>
    <text class="key-index" x="1204.12" y="209.61" font-size="26">34</text>
    <text class="key-part part-1" x="1204.12" y="236.89" font-size="18">right</text>
    <text class="key-index" x="1274.12" y="209.61" font-size="26">35</text>
    <text class="key-part part-1" x="1274.12" y="236.89" font-size="18">right</text>
    <text class="key-index" x="55.21" y="279.61" font-size="26">36</text>
    <text class="key-part part-0" x="55.21" y="306.89" font-size="18">left</text>
    <text class="key-index" x="125.21" y="279.61" font-size="26">37</text>
    <text class="key-part part-0" x="125.21" y="306.89" font-size="18">left</text>
    <text class="key-index" x="195.21" y="262.11" font-size="26">38</text>
    <text class="key-part part-0" x="195.21" y="289.39" font-size="18">left</text>
    <text class="key-index" x="265.21" y="253.36" font-size="26">39</text>
    <text class="key-part part-0" x="265.21" y="280.64" font-size="18">left</text>
    <text class="key-index" x="335.21" y="262.11" font-size="26">40</text>
    <text class="key-part part-0" x="335.21" y="289.39" font-size="18">left</text>
    <text class="key-index" x="405.21" y="270.86" font-size="26">41</text>
    <text class="key-part part-0" x="405.21" y="298.14" font-size="18">left</text>
    <text class="key-index" x="483.33" y="297.74" font-size="26" transform="rotate(30 483.33 309.38)">42</text>
    <text class="key-part part-0" x="483.33" y="325.02" font-size="18" transform="rotate(30 483.33 309.38)">left</text>
    <text class="key-index" x="557.58" y="352.19" font-size="26" transform="rotate(45 557.58 363.83)">43</text>
    <text class="key-part part-0" x="557.58" y="379.47" font-size="18" transform="rotate(45 557.58 363.83)">left</text>
    <text class="key-index" x="771.75" y="352.19" font-size="26" transform="rotate(-45 771.75 363.83)">44</text>
    <text class="key-part part-1" x="771.75" y="379.47" font-size="18" transform="rotate(-45 771.75 363.83)">right</text>
    <text class="key-index" x="846.00" y="297.74" font-size="26" transform="rotate(-30 846.00 309.38)">45</text>
    <text class="key-part part-1" x="846.00" y="325.02" font-size="18" transform="rotate(-30 846.00 309.38)">right</text>
    <text class="key-index" x="924.12" y="270.86" font-size="26">46</text>
    <text class="key-part part-1" x="924.12" y="298.14" font-size="18">right</text>
    <text class="key-index" x="994.12" y="262.11" font-size="26">47</text>
    <text class="key-part part-1" x="994.12" y="289.39" font-size="18">right</text>
    <text class="key-index" x="1064.12" y="253.36" font-size="26">48</text>
    <text class="key-part part-1" x="1064.12" y="280.64" font-size="18">right</text>
    <text class="key-index" x="1134.12" y="262.11" font-size="26">49</text>
    <text class="key-part part-1" x="1134.12" y="289.39" font-size="18">right</text>
    <text class="key-index" x="1204.12" y="279.61" font-size="26">50</text>
    <text class="key-part part-1" x="1204.12" y="306.89" font-size="18">right</text>
    <text class="key-index" x="1274.12" y="279.61" font-size="26">51</text>
    <text class="key-part part-1" x="1274.12" y="306.89" font-size="18">right</text>
    <text class="key-index" x="55.00" y="349.33" font-size="26">52</text>
    <text class="key-part part-0" x="55.00" y="376.61" font-size="18">left</text>
    <text class="key-index" x="220.41" y="332.18" font-size="26">53</text>
    <text class="key-part part-0" x="220.41" y="359.46" font-size="18">left</text>
    <text class="key-index" x="290.41" y="332.18" font-size="26">54</text>
    <text class="key-part part-0" x="290.41" y="359.46" font-size="18">left</text>
    <text class="key-index" x="367.76" y="342.33" font-size="26" transform="rotate(15 367.76 353.97)">55</text>
    <text class="key-part part-0" x="367.76" y="369.61" font-size="18" transform="rotate(15 367.76 353.97)">left</text>
    <text class="key-index" x="444.20" y="365.78" font-size="26" transform="rotate(30 444.20 377.42)">56</text>
    <text class="key-part part-0" x="444.20" y="393.06" font-size="18" transform="rotate(30 444.20 377.42)">left</text>
    <text class="key-index" x="509.16" y="417.65" font-size="26" transform="rotate(45 509.16 429.29)">57</text>
    <text class="key-part part-0" x="509.16" y="444.93" font-size="18" transform="rotate(45 509.16 429.29)">left</text>
    <text class="key-index" x="820.17" y="417.65" font-size="26" transform="rotate(-45 820.17 429.29)">58</text>
    <text class="key-part part-1" x="820.17" y="444.93" font-size="18" transform="rotate(-45 820.17 429.29)">right</text>
    <text class="key-index" x="885.13" y="365.78" font-size="26" transform="rotate(-30 885.13 377.42)">59</text>
    <text class="key-part part-1" x="885.13" y="393.06" font-size="18" transform="rotate(-30 885.13 377.42)">right</text>
    <text class="key-index" x="961.57" y="342.33" font-size="26" transform="rotate(-15 961.57 353.97)">60</text>
    <text class="key-part part-1" x="961.57" y="369.61" font-size="18" transform="rotate(-15 961.57 353.97)">right</text>
    <text class="key-index" x="1038.92" y="332.18" font-size="26">61</text>
    <text class="key-part part-1" x="1038.92" y="359.46" font-size="18">right</text>
    <text class="key-index" x="1108.92" y="332.18" font-size="26">62</text>
    <text class="key-part part-1" x="1108.92" y="359.46" font-size="18">right</text>
    <text class="key-index" x="1274.33" y="349.33" font-size="26">63</text>
    <text class="key-part part-1" x="1274.33" y="376.61" font-size="18">right</text>
  </g>
</svg>
